<svg xmlns="http://www.w3.org/2000/svg" viewBox="0 0 24 24" width="100%" height="100%">
  <circle cx="12" cy="12" r="12" fill="#1DB954"/>
  <path d="M16.586 16.424c-.18.295-.565.387-.86.207-2.377-1.454-5.37-1.783-8.894-.982-.336.076-.67-.135-.746-.472-.076-.336.135-.67.472-.746 3.856-.882 7.15-.5 9.822 1.136.295.18.387.563.206.857zm1.225-2.72c-.227.367-.707.487-1.074.26-2.72-1.672-6.87-2.157-10.075-1.182-.413.125-.847-.107-.972-.52-.125-.413.107-.847.52-.972 3.667-1.112 8.243-.57 11.343 1.34.368.225.488.706.258 1.074zm.106-2.833C14.384 8.78 8.563 8.588 5.174 9.616c-.534.162-1.096-.142-1.258-.676-.162-.534.142-1.096.676-1.258 3.886-1.18 10.31-.954 14.382 1.463.48.285.637.902.352 1.383-.285.48-.903.638-1.383.353z" fill="#000000"/>
</svg>
